<?xml version="1.0" encoding="utf-8"?>
<!-- Generator: Adobe Illustrator 23.0.1, SVG Export Plug-In . SVG Version: 6.00 Build 0)  -->
<svg version="1.1" id="レイヤー_1" xmlns="http://www.w3.org/2000/svg" xmlns:xlink="http://www.w3.org/1999/xlink" x="0px"
	 y="0px" width="24px" height="24px" viewBox="0 0 24 24" style="enable-background:new 0 0 24 24;" xml:space="preserve">
<style type="text/css">
	.st0{fill:#333333;}
</style>
<path class="st0" d="M12,0C5.4,0,0,5.4,0,12c0,6.6,5.4,12,12,12s12-5.4,12-12C24,5.4,18.6,0,12,0z M16.53,10.08
	c0,0.09,0.01,0.19,0.01,0.28c0,2.86-2.17,6.15-6.15,6.15c-1.22,0-2.36-0.36-3.31-0.97c0.17,0.02,0.34,0.03,0.52,0.03
	c1.01,0,1.95-0.35,2.69-0.93c-0.95-0.02-1.74-0.64-2.02-1.5c0.13,0.03,0.27,0.04,0.41,0.04c0.2,0,0.39-0.03,0.57-0.08
	c-0.99-0.2-1.73-1.07-1.73-2.12c0-0.01,0-0.02,0-0.03c0.29,0.16,0.62,0.26,0.98,0.27c-0.58-0.39-0.96-1.05-0.96-1.8
	c0-0.4,0.11-0.77,0.29-1.09c1.07,1.31,2.66,2.17,4.46,2.26c-0.04-0.16-0.06-0.32-0.06-0.49c0-1.19,0.97-2.16,2.16-2.16
	c0.62,0,1.18,0.26,1.58,0.68c0.49-0.1,0.96-0.28,1.37-0.52c-0.16,0.5-0.5,0.93-0.95,1.2c0.44-0.05,0.85-0.17,1.24-0.34
	C17.32,9.39,16.95,9.77,16.53,10.08z"/>
</svg>
