<?xml version="1.0" encoding="utf-8"?>
<!-- Generator: Adobe Illustrator 23.0.1, SVG Export Plug-In . SVG Version: 6.00 Build 0)  -->
<svg version="1.1" id="レイヤー_1" xmlns="http://www.w3.org/2000/svg" xmlns:xlink="http://www.w3.org/1999/xlink" x="0px"
	 y="0px" width="24px" height="24px" viewBox="0 0 24 24" style="enable-background:new 0 0 24 24;" xml:space="preserve">
<style type="text/css">
	.st0{fill:#333333;}
</style>
<path class="st0" d="M12,0C5.3,0,0,5.4,0,12c0,6.6,5.4,12,12,12s12-5.4,12-12C24,5.4,18.6,0,12,0z M14.73,8.27
	c-0.42-0.1-0.76-0.15-1.02-0.15c-0.3,0-0.53,0.1-0.7,0.29c-0.17,0.19-0.25,0.47-0.25,0.83v0.28h1.4v1.88h-1.4v5.55H9.98V11.4H8.7
	V9.53h1.28V9.39c0-0.55,0.11-1.07,0.32-1.56c0.21-0.49,0.57-0.89,1.07-1.21c0.5-0.32,1.15-0.48,1.97-0.48
	c0.46,0,0.93,0.05,1.39,0.15V8.27z"/>
</svg>
