<svg id="レイヤー_1" data-name="レイヤー 1" xmlns="http://www.w3.org/2000/svg" viewBox="0 0 24 24">
  <defs>
    <style>
      .cls-1 {
        fill: #333;
      }
    </style>
  </defs>
  <title>アートボード 1</title>
  <path class="cls-1" d="M12,0A12,12,0,1,0,24,12,12,12,0,0,0,12,0Zm.85,15.89a2.05,2.05,0,0,1-1.9-1s-.42,1.61-.56,2A11.36,11.36,0,0,1,9.33,19.2l-.56-.29a9.1,9.1,0,0,1,0-2.39c.14-.63,1-4.21,1-4.21A3.36,3.36,0,0,1,9.54,11c0-1.19.71-2,1.55-2a1.08,1.08,0,0,1,1.05,1.2,20.42,20.42,0,0,1-.7,2.81,1.24,1.24,0,0,0,1.27,1.55c1.47,0,2.67-1.62,2.67-3.87a3.34,3.34,0,0,0-3.52-3.44A3.65,3.65,0,0,0,8.07,10.9a3.25,3.25,0,0,0,.63,1.9.26.26,0,0,1,.07.21,8.46,8.46,0,0,0-.21,1,.17.17,0,0,1-.28.14,3.77,3.77,0,0,1-1.69-3.3C6.45,8.23,8.35,5.77,12,5.77a5,5,0,0,1,5.21,4.85C17.21,13.5,15.38,15.89,12.85,15.89Z"/>
</svg>
